<mxfile host="65bd71144e">
    <diagram name="Page-1" id="wkxYlIjZpfXv3NHhh4Hs">
        <mxGraphModel dx="1696" dy="1393" grid="1" gridSize="10" guides="1" tooltips="1" connect="1" arrows="1" fold="1" page="1" pageScale="1" pageWidth="1100" pageHeight="850" math="0" shadow="0">
            <root>
                <mxCell id="0"/>
                <mxCell id="1" parent="0"/>
                <mxCell id="SMYCNPX6eMEF9_aZok6F-3" style="rounded=0;orthogonalLoop=1;jettySize=auto;html=1;exitX=1;exitY=0.3333333333333333;exitDx=0;exitDy=0;exitPerimeter=0;entryX=0;entryY=0.5;entryDx=0;entryDy=0;" parent="1" source="SMYCNPX6eMEF9_aZok6F-1" target="SMYCNPX6eMEF9_aZok6F-2" edge="1">
                    <mxGeometry relative="1" as="geometry"/>
                </mxCell>
                <mxCell id="SMYCNPX6eMEF9_aZok6F-1" value="inventory manager" style="shape=umlActor;verticalLabelPosition=bottom;verticalAlign=top;html=1;outlineConnect=0;" parent="1" vertex="1">
                    <mxGeometry x="405" y="365" width="30" height="60" as="geometry"/>
                </mxCell>
                <mxCell id="SMYCNPX6eMEF9_aZok6F-2" value="manage inventory" style="ellipse;whiteSpace=wrap;html=1;" parent="1" vertex="1">
                    <mxGeometry x="575" y="305" width="120" height="80" as="geometry"/>
                </mxCell>
            </root>
        </mxGraphModel>
    </diagram>
</mxfile>